  0
SECTION
  2
HEADER
  9
$ACADVER
  1
AC1015
  9
$ACADMAINTVER
 70
6
  9
$DWGCODEPAGE
  3
ANSI_1252
  9
$EXTMIN
 10
1e+20
 20
1e+20
 30
1e+20
  9
$EXTMAX
 10
-1e+20
 20
-1e+20
 30
-1e+20
  9
$LIMMIN
 10
0.0
 20
0.0
  9
$LIMMAX
 10
420.0
 20
297.0
  9
$TDCREATE
 40
2460455.027662037
  9
$TDUPDATE
 40
2460455.027662037
  9
$HANDSEED
  5
1007F
  9
$PEXTMIN
 10
1e+20
 20
1e+20
 30
1e+20
  9
$PEXTMAX
 10
-1e+20
 20
-1e+20
 30
-1e+20
  9
$PLIMMIN
 10
0.0
 20
0.0
  9
$PLIMMAX
 10
420.0
 20
297.0
  9
$INSUNITS
 70
4
  9
$FINGERPRINTGUID
  2
{AC9EFC88-8CED-4B2E-8DED-5A891FD756E6}
  9
$VERSIONGUID
  2
{5D2B988F-1023-460F-9935-5CE0E4024290}
  0
ENDSEC
  0
SECTION
  2
CLASSES
  0
CLASS
  1
ACDBDICTIONARYWDFLT
  2
AcDbDictionaryWithDefault
  3
ObjectDBX Classes
 90
0
280
0
281
0
  0
CLASS
  1
SUN
  2
AcDbSun
  3
SCENEOE
 90
1153
280
0
281
0
  0
CLASS
  1
VISUALSTYLE
  2
AcDbVisualStyle
  3
ObjectDBX Classes
 90
4095
280
0
281
0
  0
CLASS
  1
MATERIAL
  2
AcDbMaterial
  3
ObjectDBX Classes
 90
1153
280
0
281
0
  0
CLASS
  1
SCALE
  2
AcDbScale
  3
ObjectDBX Classes
 90
1153
280
0
281
0
  0
CLASS
  1
TABLESTYLE
  2
AcDbTableStyle
  3
ObjectDBX Classes
 90
4095
280
0
281
0
  0
CLASS
  1
MLEADERSTYLE
  2
AcDbMLeaderStyle
  3
ACDB_MLEADERSTYLE_CLASS
 90
4095
280
0
281
0
  0
CLASS
  1
DICTIONARYVAR
  2
AcDbDictionaryVar
  3
ObjectDBX Classes
 90
0
280
0
281
0
  0
CLASS
  1
CELLSTYLEMAP
  2
AcDbCellStyleMap
  3
ObjectDBX Classes
 90
1152
280
0
281
0
  0
CLASS
  1
MENTALRAYRENDERSETTINGS
  2
AcDbMentalRayRenderSettings
  3
SCENEOE
 90
1024
280
0
281
0
  0
CLASS
  1
ACDBDETAILVIEWSTYLE
  2
AcDbDetailViewStyle
  3
ObjectDBX Classes
 90
1025
280
0
281
0
  0
CLASS
  1
ACDBSECTIONVIEWSTYLE
  2
AcDbSectionViewStyle
  3
ObjectDBX Classes
 90
1025
280
0
281
0
  0
CLASS
  1
RASTERVARIABLES
  2
AcDbRasterVariables
  3
ISM
 90
0
280
0
281
0
  0
CLASS
  1
ACDBPLACEHOLDER
  2
AcDbPlaceHolder
  3
ObjectDBX Classes
 90
0
280
0
281
0
  0
CLASS
  1
LAYOUT
  2
AcDbLayout
  3
ObjectDBX Classes
 90
0
280
0
281
0
  0
ENDSEC
  0
SECTION
  2
TABLES
  0
TABLE
  2
VPORT
  5
8
330
0
100
AcDbSymbolTable
 70
1
  0
VPORT
  5
1006A
330
8
100
AcDbSymbolTableRecord
100
AcDbViewportTableRecord
  2
*Active
 70
0
 10
0.0
 20
0.0
 11
1.0
 21
1.0
 12
0.0
 22
0.0
 13
0.0
 23
0.0
 14
0.5
 24
0.5
 15
0.5
 25
0.5
 16
0.0
 26
0.0
 36
1.0
 17
0.0
 27
0.0
 37
0.0
 40
1000.0
 41
1.34
 42
50.0
 43
0.0
 44
0.0
 50
0.0
 51
0.0
 71
0
 72
1000
 73
1
 74
3
 75
0
 76
0
 77
0
 78
0
281
0
 65
0
146
0.0
  0
ENDTAB
  0
TABLE
  2
LTYPE
  5
5
330
0
100
AcDbSymbolTable
 70
3
  0
LTYPE
  5
1006B
330
5
100
AcDbSymbolTableRecord
100
AcDbLinetypeTableRecord
  2
Continuous
 70
0
  3

 72
65
 73
0
 40
0.0
  0
ENDTAB
  0
TABLE
  2
LAYER
  5
2
330
0
100
AcDbSymbolTable
 70
2
  0
LAYER
  5
50
330
2
100
AcDbSymbolTableRecord
100
AcDbLayerTableRecord
  2
0
 70
0
 62
7
  6
CONTINUOUS
370
-3
390
10060
  0
LAYER
  5
1006C
330
2
100
AcDbSymbolTableRecord
100
AcDbLayerTableRecord
  2
Defpoints
 70
0
 62
7
  6
Continuous
290
0
370
-3
390
10060
  0
ENDTAB
  0
TABLE
  2
STYLE
  5
3
330
0
100
AcDbSymbolTable
 70
1
  0
STYLE
  5
11
330
3
100
AcDbSymbolTableRecord
100
AcDbTextStyleTableRecord
  2
STANDARD
 70
0
 40
0.0
 41
1.0
 50
0.0
 71
0
 42
2.5
  3
txt
  4

  0
ENDTAB
  0
TABLE
  2
VIEW
  5
6
330
0
100
AcDbSymbolTable
 70
0
  0
ENDTAB
  0
TABLE
  2
UCS
  5
7
330
0
100
AcDbSymbolTable
 70
0
  0
ENDTAB
  0
TABLE
  2
APPID
  5
9
330
0
100
AcDbSymbolTable
 70
3
  0
APPID
  5
12
330
9
100
AcDbSymbolTableRecord
100
AcDbRegAppTableRecord
  2
ACAD
 70
0
  0
APPID
  5
1007B
330
9
100
AcDbSymbolTableRecord
100
AcDbRegAppTableRecord
  2
HATCHBACKGROUNDCOLOR
 70
0
  0
APPID
  5
1007C
330
9
100
AcDbSymbolTableRecord
100
AcDbRegAppTableRecord
  2
EZDXF
 70
0
  0
ENDTAB
  0
TABLE
  2
DIMSTYLE
  5
A
330
0
100
AcDbSymbolTable
 70
1
100
AcDbDimStyleTable
  0
DIMSTYLE
105
1006D
330
A
100
AcDbSymbolTableRecord
100
AcDbDimStyleTableRecord
  2
Standard
 70
0
  3

  4

 40
1.0
 41
2.5
 42
0.625
 43
3.75
 44
1.25
 45
0.0
 46
0.0
 47
0.0
 48
0.0
140
2.5
141
2.5
142
0.0
143
0.03937007874
144
1.0
145
0.0
146
1.0
147
0.625
148
0.0
 71
0
 72
0
 73
0
 74
0
 75
0
 76
0
 77
1
 78
8
 79
3
170
0
171
3
172
1
173
0
174
0
175
0
176
0
177
0
178
0
179
2
271
2
272
2
273
2
274
3
275
0
276
0
277
2
278
44
279
0
280
0
281
0
282
0
283
0
284
8
285
0
286
0
288
0
289
3
371
-2
372
-2
  0
ENDTAB
  0
TABLE
  2
BLOCK_RECORD
  5
1
330
0
100
AcDbSymbolTable
 70
22
  0
BLOCK_RECORD
  5
1F
330
1
100
AcDbSymbolTableRecord
100
AcDbBlockTableRecord
  2
*MODEL_SPACE
340
10064
  0
BLOCK_RECORD
  5
1B
330
1
100
AcDbSymbolTableRecord
100
AcDbBlockTableRecord
  2
*PAPER_SPACE
340
10065
  0
BLOCK_RECORD
  5
FFFF
330
1
100
AcDbSymbolTableRecord
100
AcDbBlockTableRecord
  2
_CLOSEDFILLED
340
0
  0
BLOCK_RECORD
  5
10003
330
1
100
AcDbSymbolTableRecord
100
AcDbBlockTableRecord
  2
_OPEN30
340
0
  0
BLOCK_RECORD
  5
10008
330
1
100
AcDbSymbolTableRecord
100
AcDbBlockTableRecord
  2
_SMALL
340
0
  0
BLOCK_RECORD
  5
1000C
330
1
100
AcDbSymbolTableRecord
100
AcDbBlockTableRecord
  2
_OPEN
340
0
  0
BLOCK_RECORD
  5
10011
330
1
100
AcDbSymbolTableRecord
100
AcDbBlockTableRecord
  2
_NONE
340
0
  0
BLOCK_RECORD
  5
10014
330
1
100
AcDbSymbolTableRecord
100
AcDbBlockTableRecord
  2
_ORIGIN
340
0
  0
BLOCK_RECORD
  5
10019
330
1
100
AcDbSymbolTableRecord
100
AcDbBlockTableRecord
  2
_DOT
340
0
  0
BLOCK_RECORD
  5
1001E
330
1
100
AcDbSymbolTableRecord
100
AcDbBlockTableRecord
  2
_OBLIQUE
340
0
  0
BLOCK_RECORD
  5
10022
330
1
100
AcDbSymbolTableRecord
100
AcDbBlockTableRecord
  2
_BOXBLANK
340
0
  0
BLOCK_RECORD
  5
10027
330
1
100
AcDbSymbolTableRecord
100
AcDbBlockTableRecord
  2
_DOTSMALL
340
0
  0
BLOCK_RECORD
  5
1002B
330
1
100
AcDbSymbolTableRecord
100
AcDbBlockTableRecord
  2
_INTEGRAL
340
0
  0
BLOCK_RECORD
  5
10030
330
1
100
AcDbSymbolTableRecord
100
AcDbBlockTableRecord
  2
_CLOSEDBLANK
340
0
  0
BLOCK_RECORD
  5
10034
330
1
100
AcDbSymbolTableRecord
100
AcDbBlockTableRecord
  2
_DATUMFILLED
340
0
  0
BLOCK_RECORD
  5
10038
330
1
100
AcDbSymbolTableRecord
100
AcDbBlockTableRecord
  2
_OPEN90
340
0
  0
BLOCK_RECORD
  5
1003D
330
1
100
AcDbSymbolTableRecord
100
AcDbBlockTableRecord
  2
_DATUMBLANK
340
0
  0
BLOCK_RECORD
  5
10041
330
1
100
AcDbSymbolTableRecord
100
AcDbBlockTableRecord
  2
_DOTBLANK
340
0
  0
BLOCK_RECORD
  5
10046
330
1
100
AcDbSymbolTableRecord
100
AcDbBlockTableRecord
  2
_ARCHTICK
340
0
  0
BLOCK_RECORD
  5
1004A
330
1
100
AcDbSymbolTableRecord
100
AcDbBlockTableRecord
  2
_CLOSED
340
0
  0
BLOCK_RECORD
  5
1004F
330
1
100
AcDbSymbolTableRecord
100
AcDbBlockTableRecord
  2
_ORIGIN2
340
0
  0
BLOCK_RECORD
  5
10055
330
1
100
AcDbSymbolTableRecord
100
AcDbBlockTableRecord
  2
_BOXFILLED
340
0
  0
ENDTAB
  0
ENDSEC
  0
SECTION
  2
BLOCKS
  0
BLOCK
  5
20
330
1F
100
AcDbEntity
  8
0
100
AcDbBlockBegin
  2
*MODEL_SPACE
 70
0
 10
0.0
 20
0.0
 30
0.0
  3
*MODEL_SPACE
  1

  0
ENDBLK
  5
21
330
1F
100
AcDbEntity
  8
0
100
AcDbBlockEnd
  0
BLOCK
  5
1C
330
1B
100
AcDbEntity
  8
0
100
AcDbBlockBegin
  2
*PAPER_SPACE
 70
0
 10
0.0
 20
0.0
 30
0.0
  3
*PAPER_SPACE
  1

  0
ENDBLK
  5
1D
330
1B
100
AcDbEntity
  8
0
100
AcDbBlockEnd
  0
BLOCK
  5
10000
330
FFFF
100
AcDbEntity
  8
0
100
AcDbBlockBegin
  2
_CLOSEDFILLED
 70
0
 10
0.0
 20
0.0
 30
0.0
  3
_CLOSEDFILLED
  1

  0
SOLID
  5
10002
330
FFFF
100
AcDbEntity
  8
0
  6
BYBLOCK
 62
0
100
AcDbTrace
 10
-1.0
 20
0.16439898372402537
 30
0.0
 11
0.0
 21
0.0
 31
0.0
 12
-1.0
 22
-0.16439898372402537
 32
0.0
 13
-1.0
 23
-0.16439898372402537
 33
0.0
  0
ENDBLK
  5
10001
330
FFFF
100
AcDbEntity
  8
0
100
AcDbBlockEnd
  0
BLOCK
  5
10004
330
10003
100
AcDbEntity
  8
0
100
AcDbBlockBegin
  2
_OPEN30
 70
0
 10
0.0
 20
0.0
 30
0.0
  3
_OPEN30
  1

  0
LWPOLYLINE
  5
10006
330
10003
100
AcDbEntity
  8
0
  6
BYBLOCK
 62
0
100
AcDbPolyline
 90
3
 70
0
 10
-1.0
 20
0.25881904510252074
 10
0.0
 20
0.0
 10
-1.0
 20
-0.25881904510252074
  0
LINE
  5
10007
330
10003
100
AcDbEntity
  8
0
  6
BYBLOCK
 62
0
100
AcDbLine
 10
0.0
 20
0.0
 30
0.0
 11
-1.0
 21
0.0
 31
0.0
  0
ENDBLK
  5
10005
330
10003
100
AcDbEntity
  8
0
100
AcDbBlockEnd
  0
BLOCK
  5
10009
330
10008
100
AcDbEntity
  8
0
100
AcDbBlockBegin
  2
_SMALL
 70
0
 10
0.0
 20
0.0
 30
0.0
  3
_SMALL
  1

  0
CIRCLE
  5
1000B
330
10008
100
AcDbEntity
  8
0
  6
BYBLOCK
 62
0
100
AcDbCircle
 10
0.0
 20
0.0
 30
0.0
 40
0.25
  0
ENDBLK
  5
1000A
330
10008
100
AcDbEntity
  8
0
100
AcDbBlockEnd
  0
BLOCK
  5
1000D
330
1000C
100
AcDbEntity
  8
0
100
AcDbBlockBegin
  2
_OPEN
 70
0
 10
0.0
 20
0.0
 30
0.0
  3
_OPEN
  1

  0
LWPOLYLINE
  5
1000F
330
1000C
100
AcDbEntity
  8
0
  6
BYBLOCK
 62
0
100
AcDbPolyline
 90
3
 70
0
 10
-1.0
 20
0.16439898372402537
 10
0.0
 20
0.0
 10
-1.0
 20
-0.16439898372402537
  0
LINE
  5
10010
330
1000C
100
AcDbEntity
  8
0
  6
BYBLOCK
 62
0
100
AcDbLine
 10
0.0
 20
0.0
 30
0.0
 11
-1.0
 21
0.0
 31
0.0
  0
ENDBLK
  5
1000E
330
1000C
100
AcDbEntity
  8
0
100
AcDbBlockEnd
  0
BLOCK
  5
10012
330
10011
100
AcDbEntity
  8
0
100
AcDbBlockBegin
  2
_NONE
 70
0
 10
0.0
 20
0.0
 30
0.0
  3
_NONE
  1

  0
ENDBLK
  5
10013
330
10011
100
AcDbEntity
  8
0
100
AcDbBlockEnd
  0
BLOCK
  5
10015
330
10014
100
AcDbEntity
  8
0
100
AcDbBlockBegin
  2
_ORIGIN
 70
0
 10
0.0
 20
0.0
 30
0.0
  3
_ORIGIN
  1

  0
CIRCLE
  5
10017
330
10014
100
AcDbEntity
  8
0
  6
BYBLOCK
 62
0
100
AcDbCircle
 10
0.0
 20
0.0
 30
0.0
 40
0.5
  0
LINE
  5
10018
330
10014
100
AcDbEntity
  8
0
  6
BYBLOCK
 62
0
100
AcDbLine
 10
0.0
 20
0.0
 30
0.0
 11
-1.0
 21
0.0
 31
0.0
  0
ENDBLK
  5
10016
330
10014
100
AcDbEntity
  8
0
100
AcDbBlockEnd
  0
BLOCK
  5
1001A
330
10019
100
AcDbEntity
  8
0
100
AcDbBlockBegin
  2
_DOT
 70
0
 10
0.0
 20
0.0
 30
0.0
  3
_DOT
  1

  0
LINE
  5
1001C
330
10019
100
AcDbEntity
  8
0
  6
BYBLOCK
 62
0
100
AcDbLine
 10
-0.5
 20
0.0
 30
0.0
 11
-1.0
 21
0.0
 31
0.0
  0
LWPOLYLINE
  5
1001D
330
10019
100
AcDbEntity
  8
0
  6
BYBLOCK
 62
0
100
AcDbPolyline
 90
2
 70
1
 43
0.5
 10
-0.25
 20
0.0
 42
1.0
 10
0.25
 20
0.0
 42
1.0
  0
ENDBLK
  5
1001B
330
10019
100
AcDbEntity
  8
0
100
AcDbBlockEnd
  0
BLOCK
  5
1001F
330
1001E
100
AcDbEntity
  8
0
100
AcDbBlockBegin
  2
_OBLIQUE
 70
0
 10
0.0
 20
0.0
 30
0.0
  3
_OBLIQUE
  1

  0
LINE
  5
10021
330
1001E
100
AcDbEntity
  8
0
  6
BYBLOCK
 62
0
100
AcDbLine
 10
-0.5
 20
-0.5
 30
0.0
 11
0.5
 21
0.5
 31
0.0
  0
ENDBLK
  5
10020
330
1001E
100
AcDbEntity
  8
0
100
AcDbBlockEnd
  0
BLOCK
  5
10023
330
10022
100
AcDbEntity
  8
0
100
AcDbBlockBegin
  2
_BOXBLANK
 70
0
 10
0.0
 20
0.0
 30
0.0
  3
_BOXBLANK
  1

  0
LWPOLYLINE
  5
10025
330
10022
100
AcDbEntity
  8
0
  6
BYBLOCK
 62
0
100
AcDbPolyline
 90
4
 70
1
 10
-0.5
 20
-0.5
 10
0.5
 20
-0.5
 10
0.5
 20
0.5
 10
-0.5
 20
0.5
  0
LINE
  5
10026
330
10022
100
AcDbEntity
  8
0
  6
BYBLOCK
 62
0
100
AcDbLine
 10
-0.5
 20
0.0
 30
0.0
 11
-1.0
 21
0.0
 31
0.0
  0
ENDBLK
  5
10024
330
10022
100
AcDbEntity
  8
0
100
AcDbBlockEnd
  0
BLOCK
  5
10028
330
10027
100
AcDbEntity
  8
0
100
AcDbBlockBegin
  2
_DOTSMALL
 70
0
 10
0.0
 20
0.0
 30
0.0
  3
_DOTSMALL
  1

  0
LWPOLYLINE
  5
1002A
330
10027
100
AcDbEntity
  8
0
  6
BYBLOCK
 62
0
100
AcDbPolyline
 90
2
 70
1
 43
0.125
 10
-0.0625
 20
0.0
 42
1.0
 10
0.0625
 20
0.0
 42
1.0
  0
ENDBLK
  5
10029
330
10027
100
AcDbEntity
  8
0
100
AcDbBlockEnd
  0
BLOCK
  5
1002C
330
1002B
100
AcDbEntity
  8
0
100
AcDbBlockBegin
  2
_INTEGRAL
 70
0
 10
0.0
 20
0.0
 30
0.0
  3
_INTEGRAL
  1

  0
ARC
  5
1002E
330
1002B
100
AcDbEntity
  8
0
  6
BYBLOCK
 62
0
100
AcDbCircle
 10
-0.3535534
 20
0.0
 30
0.0
 40
0.3535534
100
AcDbArc
 50
-90.0
 51
0.0
  0
ARC
  5
1002F
330
1002B
100
AcDbEntity
  8
0
  6
BYBLOCK
 62
0
100
AcDbCircle
 10
0.3535534
 20
0.0
 30
0.0
 40
0.3535534
100
AcDbArc
 50
90.0
 51
180.0
  0
ENDBLK
  5
1002D
330
1002B
100
AcDbEntity
  8
0
100
AcDbBlockEnd
  0
BLOCK
  5
10031
330
10030
100
AcDbEntity
  8
0
100
AcDbBlockBegin
  2
_CLOSEDBLANK
 70
0
 10
0.0
 20
0.0
 30
0.0
  3
_CLOSEDBLANK
  1

  0
LWPOLYLINE
  5
10033
330
10030
100
AcDbEntity
  8
0
  6
BYBLOCK
 62
0
100
AcDbPolyline
 90
3
 70
1
 10
-1.0
 20
0.16439898372402537
 10
0.0
 20
0.0
 10
-1.0
 20
-0.16439898372402537
  0
ENDBLK
  5
10032
330
10030
100
AcDbEntity
  8
0
100
AcDbBlockEnd
  0
BLOCK
  5
10035
330
10034
100
AcDbEntity
  8
0
100
AcDbBlockBegin
  2
_DATUMFILLED
 70
0
 10
0.0
 20
0.0
 30
0.0
  3
_DATUMFILLED
  1

  0
SOLID
  5
10037
330
10034
100
AcDbEntity
  8
0
  6
BYBLOCK
 62
0
100
AcDbTrace
 10
0.0
 20
0.577350269
 30
0.0
 11
0.0
 21
-0.577350269
 31
0.0
 12
-1.0
 22
0.0
 32
0.0
 13
-1.0
 23
0.0
 33
0.0
  0
ENDBLK
  5
10036
330
10034
100
AcDbEntity
  8
0
100
AcDbBlockEnd
  0
BLOCK
  5
10039
330
10038
100
AcDbEntity
  8
0
100
AcDbBlockBegin
  2
_OPEN90
 70
0
 10
0.0
 20
0.0
 30
0.0
  3
_OPEN90
  1

  0
LWPOLYLINE
  5
1003B
330
10038
100
AcDbEntity
  8
0
  6
BYBLOCK
 62
0
100
AcDbPolyline
 90
3
 70
0
 10
-1.0
 20
0.7071067811865475
 10
0.0
 20
0.0
 10
-1.0
 20
-0.7071067811865475
  0
LINE
  5
1003C
330
10038
100
AcDbEntity
  8
0
  6
BYBLOCK
 62
0
100
AcDbLine
 10
0.0
 20
0.0
 30
0.0
 11
-1.0
 21
0.0
 31
0.0
  0
ENDBLK
  5
1003A
330
10038
100
AcDbEntity
  8
0
100
AcDbBlockEnd
  0
BLOCK
  5
1003E
330
1003D
100
AcDbEntity
  8
0
100
AcDbBlockBegin
  2
_DATUMBLANK
 70
0
 10
0.0
 20
0.0
 30
0.0
  3
_DATUMBLANK
  1

  0
LWPOLYLINE
  5
10040
330
1003D
100
AcDbEntity
  8
0
  6
BYBLOCK
 62
0
100
AcDbPolyline
 90
3
 70
1
 10
0.0
 20
0.577350269
 10
0.0
 20
-0.577350269
 10
-1.0
 20
0.0
  0
ENDBLK
  5
1003F
330
1003D
100
AcDbEntity
  8
0
100
AcDbBlockEnd
  0
BLOCK
  5
10042
330
10041
100
AcDbEntity
  8
0
100
AcDbBlockBegin
  2
_DOTBLANK
 70
0
 10
0.0
 20
0.0
 30
0.0
  3
_DOTBLANK
  1

  0
CIRCLE
  5
10044
330
10041
100
AcDbEntity
  8
0
  6
BYBLOCK
 62
0
100
AcDbCircle
 10
0.0
 20
0.0
 30
0.0
 40
0.5
  0
LINE
  5
10045
330
10041
100
AcDbEntity
  8
0
  6
BYBLOCK
 62
0
100
AcDbLine
 10
-0.5
 20
0.0
 30
0.0
 11
-1.0
 21
0.0
 31
0.0
  0
ENDBLK
  5
10043
330
10041
100
AcDbEntity
  8
0
100
AcDbBlockEnd
  0
BLOCK
  5
10047
330
10046
100
AcDbEntity
  8
0
100
AcDbBlockBegin
  2
_ARCHTICK
 70
0
 10
0.0
 20
0.0
 30
0.0
  3
_ARCHTICK
  1

  0
LWPOLYLINE
  5
10049
330
10046
100
AcDbEntity
  8
0
  6
BYBLOCK
 62
0
100
AcDbPolyline
 90
2
 70
0
 43
0.15
 10
-0.5
 20
-0.5
 10
0.5
 20
0.5
  0
ENDBLK
  5
10048
330
10046
100
AcDbEntity
  8
0
100
AcDbBlockEnd
  0
BLOCK
  5
1004B
330
1004A
100
AcDbEntity
  8
0
100
AcDbBlockBegin
  2
_CLOSED
 70
0
 10
0.0
 20
0.0
 30
0.0
  3
_CLOSED
  1

  0
LWPOLYLINE
  5
1004D
330
1004A
100
AcDbEntity
  8
0
  6
BYBLOCK
 62
0
100
AcDbPolyline
 90
3
 70
1
 10
-1.0
 20
0.16439898372402537
 10
0.0
 20
0.0
 10
-1.0
 20
-0.16439898372402537
  0
LINE
  5
1004E
330
1004A
100
AcDbEntity
  8
0
  6
BYBLOCK
 62
0
100
AcDbLine
 10
0.0
 20
0.0
 30
0.0
 11
-1.0
 21
0.0
 31
0.0
  0
ENDBLK
  5
1004C
330
1004A
100
AcDbEntity
  8
0
100
AcDbBlockEnd
  0
BLOCK
  5
10050
330
1004F
100
AcDbEntity
  8
0
100
AcDbBlockBegin
  2
_ORIGIN2
 70
0
 10
0.0
 20
0.0
 30
0.0
  3
_ORIGIN2
  1

  0
CIRCLE
  5
10052
330
1004F
100
AcDbEntity
  8
0
  6
BYBLOCK
 62
0
100
AcDbCircle
 10
0.0
 20
0.0
 30
0.0
 40
0.5
  0
CIRCLE
  5
10053
330
1004F
100
AcDbEntity
  8
0
  6
BYBLOCK
 62
0
100
AcDbCircle
 10
0.0
 20
0.0
 30
0.0
 40
0.25
  0
LINE
  5
10054
330
1004F
100
AcDbEntity
  8
0
  6
BYBLOCK
 62
0
100
AcDbLine
 10
-0.5
 20
0.0
 30
0.0
 11
-1.0
 21
0.0
 31
0.0
  0
ENDBLK
  5
10051
330
1004F
100
AcDbEntity
  8
0
100
AcDbBlockEnd
  0
BLOCK
  5
10056
330
10055
100
AcDbEntity
  8
0
100
AcDbBlockBegin
  2
_BOXFILLED
 70
0
 10
0.0
 20
0.0
 30
0.0
  3
_BOXFILLED
  1

  0
SOLID
  5
10058
330
10055
100
AcDbEntity
  8
0
  6
BYBLOCK
 62
0
100
AcDbTrace
 10
-0.5
 20
-0.5
 30
0.0
 11
0.5
 21
-0.5
 31
0.0
 12
-0.5
 22
0.5
 32
0.0
 13
0.5
 23
0.5
 33
0.0
  0
LINE
  5
10059
330
10055
100
AcDbEntity
  8
0
  6
BYBLOCK
 62
0
100
AcDbLine
 10
-0.5
 20
0.0
 30
0.0
 11
-1.0
 21
0.0
 31
0.0
  0
ENDBLK
  5
10057
330
10055
100
AcDbEntity
  8
0
100
AcDbBlockEnd
  0
ENDSEC
  0
SECTION
  2
ENTITIES
  0
CIRCLE
  5
100
330
1F
100
AcDbEntity
  8
0
100
AcDbCircle
 10
261.79375
 20
-64.14999999999999
 30
0.0
 40
1.0
  0
CIRCLE
  5
101
330
1F
100
AcDbEntity
  8
0
100
AcDbCircle
 10
271.4625
 20
-45.24375
 30
0.0
 40
1.0
  0
CIRCLE
  5
102
330
1F
100
AcDbEntity
  8
0
100
AcDbCircle
 10
280.9875
 20
0.0
 30
0.0
 40
1.0
  0
CIRCLE
  5
103
330
1F
100
AcDbEntity
  8
0
100
AcDbCircle
 10
295.275
 20
-33.337500000000006
 30
0.0
 40
1.0
  0
CIRCLE
  5
104
330
1F
100
AcDbEntity
  8
0
100
AcDbCircle
 10
285.75
 20
-76.20000000000002
 30
0.0
 40
1.0
  0
CIRCLE
  5
105
330
1F
100
AcDbEntity
  8
0
100
AcDbCircle
 10
247.65
 20
-76.20000000000002
 30
0.0
 40
1.0
  0
CIRCLE
  5
106
330
1F
100
AcDbEntity
  8
0
100
AcDbCircle
 10
142.875
 20
-76.20000000000002
 30
0.0
 40
1.0
  0
CIRCLE
  5
107
330
1F
100
AcDbEntity
  8
0
100
AcDbCircle
 10
161.92499999999998
 20
0.0
 30
0.0
 40
1.0
  0
CIRCLE
  5
108
330
1F
100
AcDbEntity
  8
0
100
AcDbCircle
 10
250.03125
 20
-19.050000000000004
 30
0.0
 40
1.0
  0
CIRCLE
  5
109
330
1F
100
AcDbEntity
  8
0
100
AcDbCircle
 10
219.075
 20
0.0
 30
0.0
 40
1.0
  0
CIRCLE
  5
110
330
1F
100
AcDbEntity
  8
0
100
AcDbCircle
 10
190.5
 20
-19.050000000000004
 30
0.0
 40
1.0
  0
CIRCLE
  5
111
330
1F
100
AcDbEntity
  8
0
100
AcDbCircle
 10
214.31250000000003
 20
-38.10000000000001
 30
0.0
 40
1.0
  0
CIRCLE
  5
112
330
1F
100
AcDbEntity
  8
0
100
AcDbCircle
 10
200.025
 20
-76.20000000000002
 30
0.0
 40
1.0
  0
CIRCLE
  5
113
330
1F
100
AcDbEntity
  8
0
100
AcDbCircle
 10
185.7375
 20
-57.15
 30
0.0
 40
1.0
  0
CIRCLE
  5
114
330
1F
100
AcDbEntity
  8
0
100
AcDbCircle
 10
138.11249999999998
 20
-38.10000000000001
 30
0.0
 40
1.0
  0
CIRCLE
  5
115
330
1F
100
AcDbEntity
  8
0
100
AcDbCircle
 10
123.825
 20
0.0
 30
0.0
 40
1.0
  0
CIRCLE
  5
116
330
1F
100
AcDbEntity
  8
0
100
AcDbCircle
 10
95.25
 20
-19.050000000000004
 30
0.0
 40
1.0
  0
CIRCLE
  5
117
330
1F
100
AcDbEntity
  8
0
100
AcDbCircle
 10
97.63125000000001
 20
-76.20000000000002
 30
0.0
 40
1.0
  0
CIRCLE
  5
118
330
1F
100
AcDbEntity
  8
0
100
AcDbCircle
 10
71.4375
 20
-57.15
 30
0.0
 40
1.0
  0
CIRCLE
  5
119
330
1F
100
AcDbEntity
  8
0
100
AcDbCircle
 10
38.10000000000001
 20
-76.20000000000002
 30
0.0
 40
1.0
  0
CIRCLE
  5
120
330
1F
100
AcDbEntity
  8
0
100
AcDbCircle
 10
14.2875
 20
-76.20000000000002
 30
0.0
 40
1.0
  0
CIRCLE
  5
121
330
1F
100
AcDbEntity
  8
0
100
AcDbCircle
 10
-7.14375
 20
-38.10000000000001
 30
0.0
 40
1.0
  0
CIRCLE
  5
122
330
1F
100
AcDbEntity
  8
0
100
AcDbCircle
 10
42.8625
 20
-38.10000000000001
 30
0.0
 40
1.0
  0
CIRCLE
  5
123
330
1F
100
AcDbEntity
  8
0
100
AcDbCircle
 10
66.67500000000001
 20
0.0
 30
0.0
 40
1.0
  0
CIRCLE
  5
124
330
1F
100
AcDbEntity
  8
0
100
AcDbCircle
 10
16.668750000000003
 20
-19.050000000000004
 30
0.0
 40
1.0
  0
CIRCLE
  5
125
330
1F
100
AcDbEntity
  8
0
100
AcDbCircle
 10
9.525000000000002
 20
0.0
 30
0.0
 40
1.0
  0
LINE
  5
126
330
1F
100
AcDbEntity
  8
0
100
AcDbLine
 10
-9.525000000000002
 20
-84.22499999999998
 30
0.0
 11
-9.525000000000002
 21
8.025000000000002
 31
0.0
  0
ARC
  5
127
330
1F
100
AcDbEntity
  8
0
100
AcDbCircle
 10
303.299991
 20
8.025043999999998
 30
0.0
 40
1.4999560000269998
100
AcDbArc
 50
-0.0016806698496768591
 51
89.99965622000116
  0
LINE
  5
128
330
1F
100
AcDbEntity
  8
0
100
AcDbLine
 10
304.80000000000007
 20
8.025
 30
0.0
 11
304.80000000000007
 21
-84.22499999999998
 31
0.0
  0
ARC
  5
129
330
1F
100
AcDbEntity
  8
0
100
AcDbCircle
 10
-8.025009
 20
-84.22495599999999
 30
0.0
 40
1.500044000026999
100
AcDbArc
 50
180.00168069001722
 51
270.00034375999996
  0
ARC
  5
130
330
1F
100
AcDbEntity
  8
0
100
AcDbCircle
 10
303.300091
 20
-84.225056
 30
0.0
 40
1.499909001045388
100
AcDbArc
 50
-90.0034760700007
 51
0.0021391720820097505
  0
CIRCLE
  5
131
330
1F
100
AcDbEntity
  8
0
100
AcDbCircle
 10
283.025
 20
-38.100096
 30
0.0
 40
3.75
  0
LINE
  5
132
330
1F
100
AcDbEntity
  8
0
100
AcDbLine
 10
303.3
 20
-85.72499999999998
 30
0.0
 11
-8.025000000120258
 21
-85.725
 31
0.0
  0
ARC
  5
133
330
1F
100
AcDbEntity
  8
0
100
AcDbCircle
 10
-8.025009
 20
8.024943999999998
 30
0.0
 40
1.499991001045339
100
AcDbArc
 50
89.99965623999998
 51
179.9978609447995
  0
LINE
  5
134
330
1F
100
AcDbEntity
  8
0
100
AcDbLine
 10
-8.025
 20
9.525000000000002
 30
0.0
 11
303.2999999998753
 21
9.524999999999999
 31
0.0
  0
LWPOLYLINE
  5
135
330
1F
100
AcDbEntity
  8
0
100
AcDbPolyline
 90
8
 70
1
 10
288.800744
 20
-25.525024
 10
300.518744
 20
-25.525024
 10
302.250744
 20
-22.525024000000002
 10
302.250744
 20
3.4749760000000003
 10
300.518744
 20
6.474976
 10
288.800744
 20
6.474976
 42
0.41421356237309437
 10
288.300744
 20
5.974976000000001
 10
288.300744
 20
-25.025024000000002
 42
0.4142123908030423
  0
LWPOLYLINE
  5
136
330
1F
100
AcDbEntity
  8
0
100
AcDbPolyline
 90
8
 70
1
 10
229.26875
 20
-50.675
 10
229.26875
 20
-62.393
 10
232.26875000000004
 20
-64.125
 10
258.26875
 20
-64.125
 10
261.26875
 20
-62.393
 10
261.26875
 20
-50.675
 42
0.4142135623730951
 10
260.76875
 20
-50.175
 10
229.76875000000004
 20
-50.175
 42
0.41421239080306055
  0
LWPOLYLINE
  5
137
330
1F
100
AcDbEntity
  8
0
100
AcDbPolyline
 90
8
 70
1
 10
-4.918736
 20
-31.600096000000004
 10
-4.918736
 20
-44.600096
 42
0.4142123908030518
 10
-4.418736
 20
-45.100096
 10
13.943767999999999
 20
-45.100096
 42
0.4142135623730951
 10
14.443767999999997
 20
-44.600096
 10
14.443767999999997
 20
-31.600096000000004
 42
0.4142135623730951
 10
13.943767999999999
 20
-31.100096
 10
-4.418736000000001
 20
-31.100096
 42
0.41421239080304884
  0
LWPOLYLINE
  5
138
330
1F
100
AcDbEntity
  8
0
100
AcDbPolyline
 90
8
 70
1
 10
121.287824
 20
-31.600096000000004
 10
121.287824
 20
-44.600096
 42
0.4142123908030554
 10
121.78782400000001
 20
-45.100096
 10
135.387824
 20
-45.100096
 42
0.4142135623730951
 10
135.887824
 20
-44.600096
 10
135.887824
 20
-31.600096000000004
 42
0.4142135623730951
 10
135.387824
 20
-31.100096
 10
121.78782400000001
 20
-31.100096
 42
0.4142123908030527
  0
LWPOLYLINE
  5
139
330
1F
100
AcDbEntity
  8
0
100
AcDbPolyline
 90
8
 70
1
 10
268.92569599999996
 20
-50.650144
 10
268.92569599999996
 20
-63.650144
 42
0.41421239080302413
 10
269.425696
 20
-64.15014400000001
 10
283.025696
 20
-64.15014400000001
 42
0.4142135623730951
 10
283.525696
 20
-63.650144
 10
283.525696
 20
-50.650144
 42
0.4142135623730951
 10
283.025696
 20
-50.150144
 10
269.425696
 20
-50.150144
 42
0.4142123908030189
  0
LWPOLYLINE
  5
140
330
1F
100
AcDbEntity
  8
0
100
AcDbPolyline
 90
8
 70
1
 10
164.462896
 20
-63.650144
 10
164.462896
 20
-50.650144
 42
0.41421239080306055
 10
163.962896
 20
-50.150144
 10
150.362896
 20
-50.150144
 42
0.4142135623730951
 10
149.862896
 20
-50.650144
 10
149.862896
 20
-63.650144
 42
0.4142135623730951
 10
150.362896
 20
-64.15014400000001
 10
163.962896
 20
-64.15014400000001
 42
0.41421239080306577
  0
LWPOLYLINE
  5
141
330
1F
100
AcDbEntity
  8
0
100
AcDbPolyline
 90
8
 70
1
 10
121.600288
 20
-6.5
 10
121.600288
 20
6.5
 42
0.4142123908030417
 10
121.10028800000002
 20
7.000000000000001
 10
107.50028800000001
 20
7.000000000000001
 42
0.4142135623730951
 10
107.000288
 20
6.5
 10
107.000288
 20
-6.5
 42
0.4142135623730951
 10
107.50028800000001
 20
-7.000000000000001
 10
121.10028800000002
 20
-7.000000000000001
 42
0.4142123908030417
  0
LWPOLYLINE
  5
142
330
1F
100
AcDbEntity
  8
0
100
AcDbPolyline
 90
8
 70
1
 10
69.212656
 20
-63.650144
 10
69.212656
 20
-50.650144
 42
0.41421239080304495
 10
68.712656
 20
-50.150144
 10
55.11265600000001
 20
-50.150144
 42
0.4142135623730951
 10
54.61265600000001
 20
-50.650144
 10
54.61265600000001
 20
-63.650144
 42
0.4142135623730951
 10
55.11265600000001
 20
-64.15014400000001
 10
68.712656
 20
-64.15014400000001
 42
0.4142123908030501
  0
LWPOLYLINE
  5
143
330
1F
100
AcDbEntity
  8
0
100
AcDbPolyline
 90
8
 70
1
 10
88.262704
 20
-63.650144
 10
88.262704
 20
-50.650144
 42
0.4142123908030501
 10
87.762704
 20
-50.150144
 10
74.16270399999999
 20
-50.150144
 42
0.4142135623730951
 10
73.66270399999999
 20
-50.650144
 10
73.66270399999999
 20
-63.650144
 42
0.4142135623730951
 10
74.16270399999999
 20
-64.15014400000001
 10
87.762704
 20
-64.15014400000001
 42
0.4142123908030554
  0
LWPOLYLINE
  5
144
330
1F
100
AcDbEntity
  8
0
100
AcDbPolyline
 90
8
 70
1
 10
140.65033599999998
 20
-6.5
 10
140.65033599999998
 20
6.5
 42
0.4142123908030521
 10
140.15033599999998
 20
7.000000000000001
 10
126.55033599999997
 20
7.000000000000001
 42
0.4142135623730951
 10
126.05033599999999
 20
6.5
 10
126.05033599999999
 20
-6.5
 42
0.4142135623730951
 10
126.55033599999997
 20
-7.000000000000001
 10
140.15033599999998
 20
-7.000000000000001
 42
0.4142123908030521
  0
LWPOLYLINE
  5
145
330
1F
100
AcDbEntity
  8
0
100
AcDbPolyline
 90
8
 70
1
 10
197.48801600000002
 20
-31.600096000000004
 10
197.48801600000002
 20
-44.600096
 42
0.41421239080304495
 10
197.98801600000002
 20
-45.100096
 10
211.58801600000004
 20
-45.100096
 42
0.4142135623730951
 10
212.088016
 20
-44.600096
 10
212.088016
 20
-31.600096000000004
 42
0.4142135623730951
 10
211.58801600000004
 20
-31.100096
 10
197.98801600000002
 20
-31.100096
 42
0.4142123908030423
  0
LWPOLYLINE
  5
146
330
1F
100
AcDbEntity
  8
0
100
AcDbPolyline
 90
8
 70
1
 10
59.37516800000001
 20
-12.550048
 10
59.37516800000001
 20
-25.550048000000004
 42
0.4142123908030501
 10
59.87516800000001
 20
-26.050048
 10
73.47516799999998
 20
-26.050048
 42
0.4142135623730951
 10
73.97516799999998
 20
-25.550048000000004
 10
73.97516799999998
 20
-12.550048
 42
0.4142135623730951
 10
73.47516799999998
 20
-12.050048000000002
 10
59.87516800000001
 20
-12.050048000000002
 42
0.4142123908030514
  0
LWPOLYLINE
  5
147
330
1F
100
AcDbEntity
  8
0
100
AcDbPolyline
 90
8
 70
1
 10
-2.562512
 20
-12.449952
 10
-2.562512
 20
-25.449952000000003
 42
0.41421239080304667
 10
-2.062512
 20
-25.949952
 10
11.537488
 20
-25.949952
 42
0.4142135623730951
 10
12.037488
 20
-25.449952000000003
 10
12.037488
 20
-12.449952
 42
0.4142135623730951
 10
11.537488
 20
-11.949952
 10
-2.062512000000001
 20
-11.949952
 42
0.4142123908030463
  0
LWPOLYLINE
  5
148
330
1F
100
AcDbEntity
  8
0
100
AcDbPolyline
 90
8
 70
1
 10
45.087632
 20
-31.600096000000004
 10
45.087632
 20
-44.600096
 42
0.4142123908030554
 10
45.587632000000006
 20
-45.100096
 10
59.18763200000001
 20
-45.100096
 42
0.4142135623730951
 10
59.68763200000001
 20
-44.600096
 10
59.68763200000001
 20
-31.600096000000004
 42
0.4142135623730951
 10
59.18763200000001
 20
-31.100096
 10
45.587632000000006
 20
-31.100096
 42
0.4142123908030527
  0
LWPOLYLINE
  5
149
330
1F
100
AcDbEntity
  8
0
100
AcDbPolyline
 90
8
 70
1
 10
192.725504
 20
-12.550048
 10
192.725504
 20
-25.550048000000004
 42
0.41421239080303973
 10
193.225504
 20
-26.050048
 10
206.825504
 20
-26.050048
 42
0.4142135623730951
 10
207.32550400000002
 20
-25.550048000000004
 10
207.32550400000002
 20
-12.550048
 42
0.4142135623730951
 10
206.825504
 20
-12.050048000000002
 10
193.225504
 20
-12.050048000000002
 42
0.414212390803041
  0
LWPOLYLINE
  5
150
330
1F
100
AcDbEntity
  8
0
100
AcDbPolyline
 90
8
 70
1
 10
102.237776
 20
-31.600096000000004
 10
102.237776
 20
-44.600096
 42
0.4142123908030554
 10
102.73777600000001
 20
-45.100096
 10
116.33777600000002
 20
-45.100096
 42
0.4142135623730951
 10
116.837776
 20
-44.600096
 10
116.837776
 20
-31.600096000000004
 42
0.4142135623730951
 10
116.33777600000002
 20
-31.100096
 10
102.73777600000001
 20
-31.100096
 42
0.4142123908030527
  0
LWPOLYLINE
  5
151
330
1F
100
AcDbEntity
  8
0
100
AcDbPolyline
 90
8
 70
1
 10
-7.3
 20
6.5
 10
-7.3
 20
-6.5
 42
0.41421239080304817
 10
-6.800000000000001
 20
-7.000000000000001
 10
6.800000000000001
 20
-7.000000000000001
 42
0.4142135623730951
 10
7.3
 20
-6.5
 10
7.3
 20
6.5
 42
0.4142135623730951
 10
6.800000000000001
 20
7.000000000000001
 10
-6.800000000000001
 20
7.000000000000001
 42
0.41421239080304817
  0
LWPOLYLINE
  5
152
330
1F
100
AcDbEntity
  8
0
100
AcDbPolyline
 90
8
 70
1
 10
178.75043199999996
 20
-6.5
 10
178.75043199999996
 20
6.5
 42
0.4142123908030625
 10
178.25043199999996
 20
7.000000000000001
 10
164.650432
 20
7.000000000000001
 42
0.4142135623730951
 10
164.150432
 20
6.5
 10
164.150432
 20
-6.5
 42
0.4142135623730951
 10
164.650432
 20
-7.000000000000001
 10
178.25043199999996
 20
-7.000000000000001
 42
0.4142123908030625
  0
LWPOLYLINE
  5
153
330
1F
100
AcDbEntity
  8
0
100
AcDbPolyline
 90
8
 70
1
 10
302.575744
 20
-6.5
 10
302.575744
 20
6.5
 42
0.4142123908030625
 10
302.075744
 20
7.000000000000001
 10
288.475744
 20
7.000000000000001
 42
0.4142135623730951
 10
287.975744
 20
6.5
 10
287.975744
 20
-6.5
 42
0.4142135623730951
 10
288.475744
 20
-7.000000000000001
 10
302.075744
 20
-7.000000000000001
 42
0.4142123908030625
  0
LWPOLYLINE
  5
154
330
1F
100
AcDbEntity
  8
0
100
AcDbPolyline
 90
8
 70
1
 10
221.61304
 20
-63.650144
 10
221.61304
 20
-50.650144
 42
0.4142123908030189
 10
221.11304000000004
 20
-50.150144
 10
207.51304000000002
 20
-50.150144
 42
0.4142135623730951
 10
207.01304
 20
-50.650144
 10
207.01304
 20
-63.650144
 42
0.4142135623730951
 10
207.51304000000002
 20
-64.15014400000001
 10
221.11304000000004
 20
-64.15014400000001
 42
0.41421239080302413
  0
LWPOLYLINE
  5
155
330
1F
100
AcDbEntity
  8
0
100
AcDbPolyline
 90
8
 70
1
 10
173.675456
 20
-12.550048
 10
173.675456
 20
-25.550048000000004
 42
0.41421239080303973
 10
174.175456
 20
-26.050048
 10
187.775456
 20
-26.050048
 42
0.4142135623730951
 10
188.27545600000002
 20
-25.550048000000004
 10
188.27545600000002
 20
-12.550048
 42
0.4142135623730951
 10
187.775456
 20
-12.050048000000002
 10
174.175456
 20
-12.050048000000002
 42
0.414212390803041
  0
LWPOLYLINE
  5
156
330
1F
100
AcDbEntity
  8
0
100
AcDbPolyline
 90
8
 70
1
 10
159.70038399999999
 20
-6.5
 10
159.70038399999999
 20
6.5
 42
0.4142123908030313
 10
159.20038399999999
 20
7.000000000000001
 10
145.600384
 20
7.000000000000001
 42
0.4142135623730951
 10
145.100384
 20
6.5
 10
145.100384
 20
-6.5
 42
0.4142135623730951
 10
145.600384
 20
-7.000000000000001
 10
159.20038399999999
 20
-7.000000000000001
 42
0.4142123908030313
  0
LWPOLYLINE
  5
157
330
1F
100
AcDbEntity
  8
0
100
AcDbPolyline
 90
8
 70
1
 10
211.775552
 20
-12.550048
 10
211.775552
 20
-25.550048000000004
 42
0.41421239080303973
 10
212.275552
 20
-26.050048
 10
225.875552
 20
-26.050048
 42
0.4142135623730951
 10
226.37555200000003
 20
-25.550048000000004
 10
226.37555200000003
 20
-12.550048
 42
0.4142135623730951
 10
225.875552
 20
-12.050048000000002
 10
212.275552
 20
-12.050048000000002
 42
0.414212390803041
  0
LWPOLYLINE
  5
158
330
1F
100
AcDbEntity
  8
0
100
AcDbPolyline
 90
8
 70
1
 10
135.57536
 20
-12.550048
 10
135.57536
 20
-25.550048000000004
 42
0.4142123908030501
 10
136.07536
 20
-26.050048
 10
149.67535999999998
 20
-26.050048
 42
0.4142135623730951
 10
150.17536
 20
-25.550048000000004
 10
150.17536
 20
-12.550048
 42
0.4142135623730951
 10
149.67535999999998
 20
-12.050048000000002
 10
136.07536
 20
-12.050048000000002
 42
0.4142123908030514
  0
LWPOLYLINE
  5
159
330
1F
100
AcDbEntity
  8
0
100
AcDbPolyline
 90
8
 70
1
 10
140.337872
 20
-31.600096000000004
 10
140.337872
 20
-44.600096
 42
0.4142123908030554
 10
140.837872
 20
-45.100096
 10
154.437872
 20
-45.100096
 42
0.4142135623730951
 10
154.937872
 20
-44.600096
 10
154.937872
 20
-31.600096000000004
 42
0.4142135623730951
 10
154.437872
 20
-31.100096
 10
140.837872
 20
-31.100096
 42
0.4142123908030527
  0
LWPOLYLINE
  5
160
330
1F
100
AcDbEntity
  8
0
100
AcDbPolyline
 90
8
 70
1
 10
145.412848
 20
-63.650144
 10
145.412848
 20
-50.650144
 42
0.4142123908030501
 10
144.912848
 20
-50.150144
 10
131.312848
 20
-50.150144
 42
0.4142135623730951
 10
130.812848
 20
-50.650144
 10
130.812848
 20
-63.650144
 42
0.4142135623730951
 10
131.312848
 20
-64.15014400000001
 10
144.912848
 20
-64.15014400000001
 42
0.4142123908030554
  0
LWPOLYLINE
  5
161
330
1F
100
AcDbEntity
  8
0
100
AcDbPolyline
 90
8
 70
1
 10
183.512944
 20
-63.650144
 10
183.512944
 20
-50.650144
 42
0.41421239080306055
 10
183.012944
 20
-50.150144
 10
169.412944
 20
-50.150144
 42
0.4142135623730951
 10
168.91294399999998
 20
-50.650144
 10
168.91294399999998
 20
-63.650144
 42
0.4142135623730951
 10
169.412944
 20
-64.15014400000001
 10
183.012944
 20
-64.15014400000001
 42
0.41421239080306577
  0
LWPOLYLINE
  5
162
330
1F
100
AcDbEntity
  8
0
100
AcDbPolyline
 90
8
 70
1
 10
216.53806400000002
 20
-31.600096000000004
 10
216.53806400000002
 20
-44.600096
 42
0.41421239080306577
 10
217.03806400000002
 20
-45.100096
 10
230.63806400000004
 20
-45.100096
 42
0.4142135623730951
 10
231.138064
 20
-44.600096
 10
231.138064
 20
-31.600096000000004
 42
0.4142135623730951
 10
230.63806400000004
 20
-31.100096
 10
217.03806400000002
 20
-31.100096
 42
0.41421239080306316
  0
LWPOLYLINE
  5
163
330
1F
100
AcDbEntity
  8
0
100
AcDbPolyline
 90
8
 70
1
 10
302.575744
 20
-25.550048000000004
 10
302.575744
 20
-12.550048
 42
0.4142123908030618
 10
302.075744
 20
-12.050048000000002
 10
288.475744
 20
-12.050048000000002
 42
0.4142135623730951
 10
287.975744
 20
-12.550048
 10
287.975744
 20
-25.550048000000004
 42
0.4142135623730951
 10
288.475744
 20
-26.050048
 10
302.075744
 20
-26.050048
 42
0.41421239080306055
  0
LWPOLYLINE
  5
164
330
1F
100
AcDbEntity
  8
0
100
AcDbPolyline
 90
8
 70
1
 10
26.037584000000003
 20
-31.600096000000004
 10
26.037584000000003
 20
-44.600096
 42
0.4142123908030527
 10
26.537584000000003
 20
-45.100096
 10
40.137584
 20
-45.100096
 42
0.4142135623730951
 10
40.637584000000004
 20
-44.600096
 10
40.637584000000004
 20
-31.600096000000004
 42
0.4142135623730951
 10
40.137584
 20
-31.100096
 10
26.537584000000003
 20
-31.100096
 42
0.4142123908030501
  0
LWPOLYLINE
  5
165
330
1F
100
AcDbEntity
  8
0
100
AcDbPolyline
 90
8
 70
1
 10
116.52531200000004
 20
-12.550048
 10
116.52531200000004
 20
-25.550048000000004
 42
0.41421239080306055
 10
117.02531200000003
 20
-26.050048
 10
130.625312
 20
-26.050048
 42
0.4142135623730951
 10
131.125312
 20
-25.550048000000004
 10
131.125312
 20
-12.550048
 42
0.4142135623730951
 10
130.625312
 20
-12.050048000000002
 10
117.02531200000003
 20
-12.050048000000002
 42
0.4142123908030618
  0
LWPOLYLINE
  5
166
330
1F
100
AcDbEntity
  8
0
100
AcDbPolyline
 90
8
 70
1
 10
64.13768000000002
 20
-31.600096000000004
 10
64.13768000000002
 20
-44.600096
 42
0.4142123908030554
 10
64.63768
 20
-45.100096
 10
78.23767999999998
 20
-45.100096
 42
0.4142135623730951
 10
78.73767999999998
 20
-44.600096
 10
78.73767999999998
 20
-31.600096000000004
 42
0.4142135623730951
 10
78.23767999999998
 20
-31.100096
 10
64.63768
 20
-31.100096
 42
0.4142123908030527
  0
LWPOLYLINE
  5
167
330
1F
100
AcDbEntity
  8
0
100
AcDbPolyline
 90
8
 70
1
 10
50.162608000000006
 20
-63.650144
 10
50.162608000000006
 20
-50.650144
 42
0.41421239080304495
 10
49.662608000000006
 20
-50.150144
 10
36.062608
 20
-50.150144
 42
0.4142135623730951
 10
35.562608
 20
-50.650144
 10
35.562608
 20
-63.650144
 42
0.4142135623730951
 10
36.062608
 20
-64.15014400000001
 10
49.662608000000006
 20
-64.15014400000001
 42
0.4142123908030501
  0
LWPOLYLINE
  5
168
330
1F
100
AcDbEntity
  8
0
100
AcDbPolyline
 90
8
 70
1
 10
83.500192
 20
-6.5
 10
83.500192
 20
6.5
 42
0.4142123908030521
 10
83.000192
 20
7.000000000000001
 10
69.40019199999999
 20
7.000000000000001
 42
0.4142135623730951
 10
68.90019199999999
 20
6.5
 10
68.90019199999999
 20
-6.5
 42
0.4142135623730951
 10
69.40019199999999
 20
-7.000000000000001
 10
83.000192
 20
-7.000000000000001
 42
0.4142123908030521
  0
LWPOLYLINE
  5
169
330
1F
100
AcDbEntity
  8
0
100
AcDbPolyline
 90
8
 70
1
 10
97.475264
 20
-12.550048
 10
97.475264
 20
-25.550048000000004
 42
0.4142123908030501
 10
97.97526400000001
 20
-26.050048
 10
111.57526400000002
 20
-26.050048
 42
0.4142135623730951
 10
112.075264
 20
-25.550048000000004
 10
112.075264
 20
-12.550048
 42
0.4142135623730951
 10
111.57526400000002
 20
-12.050048000000002
 10
97.97526400000001
 20
-12.050048000000002
 42
0.4142123908030514
  0
LWPOLYLINE
  5
170
330
1F
100
AcDbEntity
  8
0
100
AcDbPolyline
 90
8
 70
1
 10
197.80048
 20
-6.5
 10
197.80048
 20
6.5
 42
0.4142123908030625
 10
197.30048
 20
7.000000000000001
 10
183.70048
 20
7.000000000000001
 42
0.4142135623730951
 10
183.20048
 20
6.5
 10
183.20048
 20
-6.5
 42
0.4142135623730951
 10
183.70048
 20
-7.000000000000001
 10
197.30048
 20
-7.000000000000001
 42
0.4142123908030625
  0
LWPOLYLINE
  5
171
330
1F
100
AcDbEntity
  8
0
100
AcDbPolyline
 90
8
 70
1
 10
302.500192
 20
-82.72425599999998
 10
302.500192
 20
-69.724256
 42
0.41421239080302413
 10
302.000192
 20
-69.224256
 10
288.400192
 20
-69.224256
 42
0.4142135623730951
 10
287.90019200000006
 20
-69.724256
 10
287.90019200000006
 20
-82.72425599999998
 42
0.4142135623730951
 10
288.400192
 20
-83.224256
 10
302.000192
 20
-83.224256
 42
0.4142123908030345
  0
LWPOLYLINE
  5
172
330
1F
100
AcDbEntity
  8
0
100
AcDbPolyline
 90
8
 70
1
 10
26.350048000000005
 20
-6.5
 10
26.350048000000005
 20
6.5
 42
0.4142123908030495
 10
25.850048
 20
7.000000000000001
 10
12.250048
 20
7.000000000000001
 42
0.4142135623730951
 10
11.750048
 20
6.5
 10
11.750048
 20
-6.5
 42
0.4142135623730951
 10
12.250048
 20
-7.000000000000001
 10
25.850048
 20
-7.000000000000001
 42
0.4142123908030495
  0
LWPOLYLINE
  5
173
330
1F
100
AcDbEntity
  8
0
100
AcDbPolyline
 90
8
 70
1
 10
178.437968
 20
-31.600096000000004
 10
178.437968
 20
-44.600096
 42
0.41421239080306577
 10
178.937968
 20
-45.100096
 10
192.53796800000003
 20
-45.100096
 42
0.4142135623730951
 10
193.037968
 20
-44.600096
 10
193.037968
 20
-31.600096000000004
 42
0.4142135623730951
 10
192.53796800000003
 20
-31.100096
 10
178.937968
 20
-31.100096
 42
0.41421239080306316
  0
LWPOLYLINE
  5
174
330
1F
100
AcDbEntity
  8
0
100
AcDbPolyline
 90
8
 70
1
 10
216.850528
 20
-6.5
 10
216.850528
 20
6.5
 42
0.4142123908030625
 10
216.350528
 20
7.000000000000001
 10
202.750528
 20
7.000000000000001
 42
0.4142135623730951
 10
202.250528
 20
6.5
 10
202.250528
 20
-6.5
 42
0.4142135623730951
 10
202.750528
 20
-7.000000000000001
 10
216.350528
 20
-7.000000000000001
 42
0.4142123908030625
  0
LWPOLYLINE
  5
175
330
1F
100
AcDbEntity
  8
0
100
AcDbPolyline
 90
8
 70
1
 10
83.18772799999999
 20
-31.600096000000004
 10
83.18772799999999
 20
-44.600096
 42
0.4142123908030554
 10
83.687728
 20
-45.100096
 10
97.28772800000002
 20
-45.100096
 42
0.4142135623730951
 10
97.787728
 20
-44.600096
 10
97.787728
 20
-31.600096000000004
 42
0.4142135623730951
 10
97.28772800000002
 20
-31.100096
 10
83.687728
 20
-31.100096
 42
0.4142123908030527
  0
LWPOLYLINE
  5
176
330
1F
100
AcDbEntity
  8
0
100
AcDbPolyline
 90
8
 70
1
 10
230.8256
 20
-12.550048
 10
230.8256
 20
-25.550048000000004
 42
0.41421239080303973
 10
231.3256
 20
-26.050048
 10
244.9256
 20
-26.050048
 42
0.4142135623730951
 10
245.42560000000003
 20
-25.550048000000004
 10
245.42560000000003
 20
-12.550048
 42
0.4142135623730951
 10
244.9256
 20
-12.050048000000002
 10
231.3256
 20
-12.050048000000002
 42
0.414212390803041
  0
LWPOLYLINE
  5
177
330
1F
100
AcDbEntity
  8
0
100
AcDbPolyline
 90
8
 70
1
 10
102.55024
 20
-6.5
 10
102.55024
 20
6.5
 42
0.4142123908030417
 10
102.05024000000002
 20
7.000000000000001
 10
88.45024000000001
 20
7.000000000000001
 42
0.4142135623730951
 10
87.95024
 20
6.5
 10
87.95024
 20
-6.5
 42
0.4142135623730951
 10
88.45024000000001
 20
-7.000000000000001
 10
102.05024000000002
 20
-7.000000000000001
 42
0.4142123908030417
  0
LWPOLYLINE
  5
178
330
1F
100
AcDbEntity
  8
0
100
AcDbPolyline
 90
8
 70
1
 10
249.875648
 20
-69.700192
 10
249.875648
 20
-82.700192
 42
0.41421239080304495
 10
250.375648
 20
-83.20019200000002
 10
263.975648
 20
-83.20019200000002
 42
0.4142135623730951
 10
264.475648
 20
-82.700192
 10
264.475648
 20
-69.700192
 42
0.4142135623730951
 10
263.975648
 20
-69.200192
 10
250.375648
 20
-69.200192
 42
0.41421239080303973
  0
LWPOLYLINE
  5
179
330
1F
100
AcDbEntity
  8
0
100
AcDbPolyline
 90
8
 70
1
 10
107.312752
 20
-63.650144
 10
107.312752
 20
-50.650144
 42
0.41421239080303973
 10
106.81275200000002
 20
-50.150144
 10
93.21275200000001
 20
-50.150144
 42
0.4142135623730951
 10
92.712752
 20
-50.650144
 10
92.712752
 20
-63.650144
 42
0.4142135623730951
 10
93.21275200000001
 20
-64.15014400000001
 10
106.81275200000002
 20
-64.15014400000001
 42
0.41421239080304495
  0
LWPOLYLINE
  5
180
330
1F
100
AcDbEntity
  8
0
100
AcDbPolyline
 90
8
 70
1
 10
268.92569599999996
 20
-69.700192
 10
268.92569599999996
 20
-82.700192
 42
0.41421239080302413
 10
269.425696
 20
-83.20019200000002
 10
283.025696
 20
-83.20019200000002
 42
0.4142135623730951
 10
283.525696
 20
-82.700192
 10
283.525696
 20
-69.700192
 42
0.4142135623730951
 10
283.025696
 20
-69.200192
 10
269.425696
 20
-69.200192
 42
0.4142123908030189
  0
LWPOLYLINE
  5
181
330
1F
100
AcDbEntity
  8
0
100
AcDbPolyline
 90
8
 70
1
 10
64.450144
 20
-6.5
 10
64.450144
 20
6.5
 42
0.4142123908030417
 10
63.95014400000001
 20
7.000000000000001
 10
50.35014400000001
 20
7.000000000000001
 42
0.4142135623730951
 10
49.85014400000001
 20
6.5
 10
49.85014400000001
 20
-6.5
 42
0.4142135623730951
 10
50.35014400000001
 20
-7.000000000000001
 10
63.95014400000001
 20
-7.000000000000001
 42
0.4142123908030417
  0
LWPOLYLINE
  5
182
330
1F
100
AcDbEntity
  8
0
100
AcDbPolyline
 90
8
 70
1
 10
126.3628
 20
-63.650144
 10
126.3628
 20
-50.650144
 42
0.4142123908030501
 10
125.86280000000001
 20
-50.150144
 10
112.26280000000001
 20
-50.150144
 42
0.4142135623730951
 10
111.7628
 20
-50.650144
 10
111.7628
 20
-63.650144
 42
0.4142135623730951
 10
112.26280000000001
 20
-64.15014400000001
 10
125.86280000000001
 20
-64.15014400000001
 42
0.4142123908030554
  0
LWPOLYLINE
  5
183
330
1F
100
AcDbEntity
  8
0
100
AcDbPolyline
 90
8
 70
1
 10
45.400096000000005
 20
-6.5
 10
45.400096000000005
 20
6.5
 42
0.4142123908030521
 10
44.900096
 20
7.000000000000001
 10
31.300096000000003
 20
7.000000000000001
 42
0.4142135623730951
 10
30.800096000000003
 20
6.5
 10
30.800096000000003
 20
-6.5
 42
0.4142135623730951
 10
31.300096000000003
 20
-7.000000000000001
 10
44.900096
 20
-7.000000000000001
 42
0.4142123908030521
  0
LWPOLYLINE
  5
184
330
1F
100
AcDbEntity
  8
0
100
AcDbPolyline
 90
8
 70
1
 10
78.42521599999999
 20
-12.550048
 10
78.42521599999999
 20
-25.550048000000004
 42
0.41421239080303973
 10
78.92521599999999
 20
-26.050048
 10
92.525216
 20
-26.050048
 42
0.4142135623730951
 10
93.025216
 20
-25.550048000000004
 10
93.025216
 20
-12.550048
 42
0.4142135623730951
 10
92.525216
 20
-12.050048000000002
 10
78.92521599999999
 20
-12.050048000000002
 42
0.414212390803041
  0
LWPOLYLINE
  5
185
330
1F
100
AcDbEntity
  8
0
100
AcDbPolyline
 90
8
 70
1
 10
154.625408
 20
-12.550048
 10
154.625408
 20
-25.550048000000004
 42
0.4142123908030501
 10
155.125408
 20
-26.050048
 10
168.725408
 20
-26.050048
 42
0.4142135623730951
 10
169.22540800000002
 20
-25.550048000000004
 10
169.22540800000002
 20
-12.550048
 42
0.4142135623730951
 10
168.725408
 20
-12.050048000000002
 10
155.125408
 20
-12.050048000000002
 42
0.4142123908030514
  0
LWPOLYLINE
  5
186
330
1F
100
AcDbEntity
  8
0
100
AcDbPolyline
 90
8
 70
1
 10
235.900576
 20
-6.5
 10
235.900576
 20
6.5
 42
0.4142123908030625
 10
235.400576
 20
7.000000000000001
 10
221.800576
 20
7.000000000000001
 42
0.4142135623730951
 10
221.300576
 20
6.5
 10
221.300576
 20
-6.5
 42
0.4142135623730951
 10
221.800576
 20
-7.000000000000001
 10
235.400576
 20
-7.000000000000001
 42
0.4142123908030625
  0
LWPOLYLINE
  5
187
330
1F
100
AcDbEntity
  8
0
100
AcDbPolyline
 90
8
 70
1
 10
202.562992
 20
-63.650144
 10
202.562992
 20
-50.650144
 42
0.41421239080303973
 10
202.06299200000004
 20
-50.150144
 10
188.462992
 20
-50.150144
 42
0.4142135623730951
 10
187.96299200000004
 20
-50.650144
 10
187.96299200000004
 20
-63.650144
 42
0.4142135623730951
 10
188.462992
 20
-64.15014400000001
 10
202.06299200000004
 20
-64.15014400000001
 42
0.41421239080304495
  0
LWPOLYLINE
  5
188
330
1F
100
AcDbEntity
  8
0
100
AcDbPolyline
 90
8
 70
1
 10
21.275072
 20
-12.550048
 10
21.275072
 20
-25.550048000000004
 42
0.4142123908030501
 10
21.775072000000005
 20
-26.050048
 10
35.375071999999996
 20
-26.050048
 42
0.4142135623730951
 10
35.875071999999996
 20
-25.550048000000004
 10
35.875071999999996
 20
-12.550048
 42
0.4142135623730951
 10
35.375071999999996
 20
-12.050048000000002
 10
21.775072000000005
 20
-12.050048000000002
 42
0.4142123908030514
  0
LWPOLYLINE
  5
189
330
1F
100
AcDbEntity
  8
0
100
AcDbPolyline
 90
8
 70
1
 10
40.32512
 20
-12.550048
 10
40.32512
 20
-25.550048000000004
 42
0.41421239080304495
 10
40.825120000000005
 20
-26.050048
 10
54.42512000000001
 20
-26.050048
 42
0.4142135623730951
 10
54.92512000000001
 20
-25.550048000000004
 10
54.92512000000001
 20
-12.550048
 42
0.4142135623730951
 10
54.42512000000001
 20
-12.050048000000002
 10
40.825120000000005
 20
-12.050048000000002
 42
0.4142123908030463
  0
LWPOLYLINE
  5
190
330
1F
100
AcDbEntity
  8
0
100
AcDbPolyline
 90
8
 70
1
 10
159.38792
 20
-31.600096000000004
 10
159.38792
 20
-44.600096
 42
0.4142123908030345
 10
159.88791999999998
 20
-45.100096
 10
173.48792
 20
-45.100096
 42
0.4142135623730951
 10
173.98792
 20
-44.600096
 10
173.98792
 20
-31.600096000000004
 42
0.4142135623730951
 10
173.48792
 20
-31.100096
 10
159.88791999999998
 20
-31.100096
 42
0.4142123908030319
  0
LWPOLYLINE
  5
1006F
330
1F
100
AcDbEntity
  8
0
100
AcDbPolyline
 90
8
 70
1
 10
241.175648
 20
6.475
 10
241.175648
 20
-5.243000000000002
 10
244.17564800000002
 20
-6.975
 10
270.175648
 20
-6.975
 10
273.175648
 20
-5.243000000000002
 10
273.175648
 20
6.475
 42
0.4142135623730951
 10
272.675648
 20
6.975
 10
241.67564800000002
 20
6.975
 42
0.4142123908030423
  0
CIRCLE
  5
10070
330
1F
100
AcDbEntity
  8
0
100
AcDbCircle
 10
-4.61875
 20
-64.14999999999999
 30
0.0
 40
1.0
  0
LWPOLYLINE
  5
10071
330
1F
100
AcDbEntity
  8
0
100
AcDbPolyline
 90
8
 70
1
 10
-4.093720000000001
 20
-50.675144
 10
-4.093720000000001
 20
-62.39314400000001
 10
-1.0937200000000002
 20
-64.12514399999999
 10
24.906280000000002
 20
-64.12514399999999
 10
27.90628
 20
-62.39314400000001
 10
27.90628
 20
-50.675144
 42
0.4142135623730951
 10
27.406280000000002
 20
-50.175144
 10
-3.5937200000000002
 20
-50.175144
 42
0.41421239080304656
  0
LWPOLYLINE
  5
10072
330
1F
100
AcDbEntity
  8
0
100
AcDbPolyline
 90
8
 70
1
 10
235.58811200000002
 20
-31.600096000000004
 10
235.58811200000002
 20
-44.600096
 42
0.41421239080306577
 10
236.08811200000002
 20
-45.100096
 10
249.68811200000002
 20
-45.100096
 42
0.4142135623730951
 10
250.18811200000002
 20
-44.600096
 10
250.18811200000002
 20
-31.600096000000004
 42
0.4142135623730951
 10
249.68811200000002
 20
-31.100096
 10
236.08811200000002
 20
-31.100096
 42
0.41421239080306316
  0
LWPOLYLINE
  5
10073
330
1F
100
AcDbEntity
  8
0
100
AcDbPolyline
 90
8
 70
1
 10
257.844416
 20
-44.575072000000006
 10
269.562416
 20
-44.575072000000006
 10
271.294416
 20
-41.575072000000006
 10
271.294416
 20
-15.575071999999999
 10
269.562416
 20
-12.575072
 10
257.844416
 20
-12.575072
 42
0.4142135623730951
 10
257.344416
 20
-13.075071999999999
 10
257.344416
 20
-44.075072000000006
 42
0.41421239080306055
  0
LWPOLYLINE
  5
10074
330
1F
100
AcDbEntity
  8
0
100
AcDbPolyline
 90
8
 70
1
 10
126.05033599999999
 20
-69.700192
 10
126.05033599999999
 20
-82.700192
 42
0.4142135623730951
 10
126.55033599999997
 20
-83.20019200000002
 10
140.15033599999998
 20
-83.20019200000002
 42
0.4142123908030554
 10
140.65033599999998
 20
-82.700192
 10
140.65033599999998
 20
-69.700192
 42
0.4142123908030501
 10
140.15033599999998
 20
-69.200192
 10
126.55033599999997
 20
-69.200192
 42
0.4142135623730951
  0
LWPOLYLINE
  5
10075
330
1F
100
AcDbEntity
  8
0
100
AcDbPolyline
 90
16
 70
1
 10
82.49339999998838
 20
-83.14999999999998
 42
0.41421239081664507
 10
82.9934
 20
-82.64999999998837
 10
82.9934
 20
-69.75000000001161
 42
0.41421239081664507
 10
82.49339999998838
 20
-69.25
 10
69.89340000001161
 20
-69.25
 42
0.41421239081664507
 10
69.3934
 20
-69.75000000001161
 10
69.3934
 20
-82.64999999998837
 42
0.41421239081664507
 10
69.89340000001161
 20
-83.14999999999998
 10
82.49339999998838
 20
-83.14999999999998
 42
0.41421239081664507
 10
82.9934
 20
-82.64999999998837
 10
82.9934
 20
-69.75000000001161
 42
0.41421239081664507
 10
82.49339999998838
 20
-69.25
 10
69.89340000001161
 20
-69.25
 42
0.41421239081664507
 10
69.3934
 20
-69.75000000001161
 10
69.3934
 20
-82.64999999998837
 42
0.41421239081664507
 10
69.89340000001161
 20
-83.14999999999998
  0
LWPOLYLINE
  5
10076
330
1F
100
AcDbEntity
  8
0
100
AcDbPolyline
 90
8
 70
1
 10
196.80000000000004
 20
-83.14999999999999
 42
0.4142135623730951
 10
197.30000000000004
 20
-82.64999999999999
 10
197.30000000000004
 20
-69.75
 42
0.4142135623730951
 10
196.80000000000004
 20
-69.25
 10
184.2
 20
-69.25
 42
0.4142135623730951
 10
183.7
 20
-69.75
 10
183.7
 20
-82.64999999999999
 42
0.4142135623730951
 10
184.2
 20
-83.14999999999999
  0
LWPOLYLINE
  5
10077
330
1F
100
AcDbEntity
  8
0
100
AcDbPolyline
 90
8
 70
1
 10
204.631787
 20
-69.700192
 10
204.631787
 20
-82.700192
 42
0.4142135623730951
 10
205.131787
 20
-83.20019200000002
 10
221.113039
 20
-83.20019200000002
 42
0.41421239080306577
 10
221.61303900000001
 20
-82.700192
 10
221.61303900000001
 20
-69.700192
 42
0.41421239080306055
 10
221.113039
 20
-69.200192
 10
205.131787
 20
-69.200192
 42
0.4142135623730951
  0
LWPOLYLINE
  5
10078
330
1F
100
AcDbEntity
  8
0
100
AcDbPolyline
 90
8
 70
1
 10
228.444347
 20
-69.700192
 10
228.444347
 20
-82.700192
 42
0.4142135623730951
 10
228.94434700000002
 20
-83.20019200000002
 10
244.92559900000003
 20
-83.20019200000002
 42
0.41421239080304495
 10
245.425599
 20
-82.700192
 10
245.425599
 20
-69.700192
 42
0.41421239080303973
 10
244.92559900000003
 20
-69.200192
 10
228.94434700000002
 20
-69.200192
 42
0.4142135623730951
  0
LWPOLYLINE
  5
10079
330
1F
100
AcDbEntity
  8
0
100
AcDbPolyline
 90
8
 70
1
 10
42.706379
 20
-69.700192
 10
42.706379
 20
-82.700192
 42
0.4142135623730951
 10
43.206379000000005
 20
-83.20019200000002
 10
59.187631
 20
-83.20019200000002
 42
0.4142123908030501
 10
59.687631
 20
-82.700192
 10
59.687631
 20
-69.700192
 42
0.41421239080304495
 10
59.187631
 20
-69.200192
 10
43.206379000000005
 20
-69.200192
 42
0.4142135623730951
  0
LWPOLYLINE
  5
1007A
330
1F
100
AcDbEntity
  8
0
100
AcDbPolyline
 90
8
 70
1
 10
-4.918741
 20
-69.700192
 10
-4.918741
 20
-82.700192
 42
0.4142135623730951
 10
-4.418741
 20
-83.20019200000002
 10
11.562511000000002
 20
-83.20019200000002
 42
0.4142123908030501
 10
12.062511000000002
 20
-82.700192
 10
12.062511000000002
 20
-69.700192
 42
0.41421239080304495
 10
11.562511000000002
 20
-69.200192
 10
-4.418740999999999
 20
-69.200192
 42
0.41421356237309537
  0
ENDSEC
  0
SECTION
  2
OBJECTS
  0
DICTIONARY
  5
C
330
None
100
AcDbDictionary
281
1
  3
ACAD_GROUP
350
D
  3
ACAD_MLINESTYLE
350
17
  3
ACAD_COLOR
350
1005A
  3
ACAD_LAYOUT
350
1005B
  3
ACAD_MATERIAL
350
1005C
  3
ACAD_MLEADERSTYLE
350
1005D
  3
ACAD_PLOTSETTINGS
350
1005E
  3
ACAD_PLOTSTYLENAME
350
1005F
  3
ACAD_SCALELIST
350
10061
  3
ACAD_TABLESTYLE
350
10062
  3
ACAD_VISUALSTYLE
350
10063
  3
EZDXF_META
350
1007D
  0
DICTIONARY
  5
D
330
None
100
AcDbDictionary
281
1
  0
DICTIONARY
  5
1A
330
C
100
AcDbDictionary
281
1
  0
DICTIONARY
  5
17
330
None
100
AcDbDictionary
281
1
  3
Standard
350
10069
  0
DICTIONARY
  5
1005A
330
C
100
AcDbDictionary
280
0
281
1
  0
DICTIONARY
  5
1005B
330
C
100
AcDbDictionary
280
0
281
1
  3
Model
350
10064
  3
Layout1
350
10065
  0
DICTIONARY
  5
1005C
330
C
100
AcDbDictionary
280
0
281
1
  3
ByBlock
350
10066
  3
ByLayer
350
10067
  3
Global
350
10068
  0
DICTIONARY
  5
1005D
330
C
100
AcDbDictionary
280
0
281
1
  3
Standard
350
1006E
  0
DICTIONARY
  5
1005E
330
C
100
AcDbDictionary
280
0
281
1
  0
ACDBDICTIONARYWDFLT
  5
1005F
330
C
100
AcDbDictionary
280
0
281
1
  3
Normal
350
10060
100
AcDbDictionaryWithDefault
340
10060
  0
ACDBPLACEHOLDER
  5
10060
330
1005F
  0
DICTIONARY
  5
10061
330
C
100
AcDbDictionary
280
0
281
1
  0
DICTIONARY
  5
10062
330
C
100
AcDbDictionary
280
0
281
1
  0
DICTIONARY
  5
10063
330
C
100
AcDbDictionary
280
0
281
1
  0
LAYOUT
  5
10064
330
1005B
100
AcDbPlotSettings
  1

  2
Adobe PDF
  4
A3
  6

 40
7.5
 41
20.0
 42
7.5
 43
20.0
 44
420.0
 45
297.0
 46
0.0
 47
0.0
 48
0.0
 49
0.0
140
0.0
141
0.0
142
1.0
143
1.0
 70
1024
 72
1
 73
0
 74
5
  7

 75
16
 76
0
 77
2
 78
300
147
1.0
148
0.0
149
0.0
100
AcDbLayout
  1
Model
 70
1
 71
0
 10
0.0
 20
0.0
 11
420.0
 21
297.0
 12
0.0
 22
0.0
 32
0.0
 14
1e+20
 24
1e+20
 34
1e+20
 15
-1e+20
 25
-1e+20
 35
-1e+20
146
0.0
 13
0.0
 23
0.0
 33
0.0
 16
1.0
 26
0.0
 36
0.0
 17
0.0
 27
1.0
 37
0.0
 76
1
330
1F
  0
LAYOUT
  5
10065
330
1005B
100
AcDbPlotSettings
  1

  2
Adobe PDF
  4
A3
  6

 40
7.5
 41
20.0
 42
7.5
 43
20.0
 44
420.0
 45
297.0
 46
0.0
 47
0.0
 48
0.0
 49
0.0
140
0.0
141
0.0
142
1.0
143
1.0
 70
0
 72
1
 73
0
 74
5
  7

 75
16
 76
0
 77
2
 78
300
147
1.0
148
0.0
149
0.0
100
AcDbLayout
  1
Layout1
 70
1
 71
1
 10
0.0
 20
0.0
 11
420.0
 21
297.0
 12
0.0
 22
0.0
 32
0.0
 14
1e+20
 24
1e+20
 34
1e+20
 15
-1e+20
 25
-1e+20
 35
-1e+20
146
0.0
 13
0.0
 23
0.0
 33
0.0
 16
1.0
 26
0.0
 36
0.0
 17
0.0
 27
1.0
 37
0.0
 76
1
330
1B
  0
MATERIAL
  5
10066
102
{ACAD_REACTORS
330
1005C
102
}
330
1005C
100
AcDbMaterial
  1
ByBlock
  2

 70
0
 40
1.0
 71
1
 41
1.0
 91
-1023410177
 42
1.0
 72
1
  3

 73
1
 74
1
 75
1
 44
0.5
 73
0
 45
1.0
 46
1.0
 77
1
  4

 78
1
 79
1
170
1
 48
1.0
171
1
  6

172
1
173
1
174
1
140
1.0
141
1.0
175
1
  7

176
1
177
1
178
1
143
1.0
179
1
  8

270
1
271
1
272
1
145
1.0
146
1.0
273
1
  9

274
1
275
1
276
1
 42
1.0
 72
1
  3

 73
1
 74
1
 75
1
 94
63
  0
MATERIAL
  5
10067
102
{ACAD_REACTORS
330
1005C
102
}
330
1005C
100
AcDbMaterial
  1
ByLayer
  2

 70
0
 40
1.0
 71
1
 41
1.0
 91
-1023410177
 42
1.0
 72
1
  3

 73
1
 74
1
 75
1
 44
0.5
 73
0
 45
1.0
 46
1.0
 77
1
  4

 78
1
 79
1
170
1
 48
1.0
171
1
  6

172
1
173
1
174
1
140
1.0
141
1.0
175
1
  7

176
1
177
1
178
1
143
1.0
179
1
  8

270
1
271
1
272
1
145
1.0
146
1.0
273
1
  9

274
1
275
1
276
1
 42
1.0
 72
1
  3

 73
1
 74
1
 75
1
 94
63
  0
MATERIAL
  5
10068
102
{ACAD_REACTORS
330
1005C
102
}
330
1005C
100
AcDbMaterial
  1
Global
  2

 70
0
 40
1.0
 71
1
 41
1.0
 91
-1023410177
 42
1.0
 72
1
  3

 73
1
 74
1
 75
1
 44
0.5
 73
0
 45
1.0
 46
1.0
 77
1
  4

 78
1
 79
1
170
1
 48
1.0
171
1
  6

172
1
173
1
174
1
140
1.0
141
1.0
175
1
  7

176
1
177
1
178
1
143
1.0
179
1
  8

270
1
271
1
272
1
145
1.0
146
1.0
273
1
  9

274
1
275
1
276
1
 42
1.0
 72
1
  3

 73
1
 74
1
 75
1
 94
63
  0
MLINESTYLE
  5
10069
102
{ACAD_REACTORS
330
17
102
}
330
17
100
AcDbMlineStyle
  2
Standard
 70
0
  3

 62
256
 51
90.0
 52
90.0
 71
2
 49
0.5
 62
256
  6
BYLAYER
 49
-0.5
 62
256
  6
BYLAYER
  0
MLEADERSTYLE
  5
1006E
102
{ACAD_REACTORS
330
1005D
102
}
330
1005D
100
AcDbMLeaderStyle
179
2
170
2
171
1
172
0
 90
2
 40
0.0
 41
0.0
173
1
 91
-1056964608
 92
-2
290
1
 42
2.0
291
1
 43
8.0
  3
Standard
 44
4.0
300

342
11
174
1
175
1
176
0
178
1
 93
-1056964608
 45
4.0
292
0
297
0
 46
4.0
 94
-1056964608
 47
1.0
 49
1.0
140
1.0
294
1
141
0.0
177
0
142
1.0
295
0
296
0
143
3.75
271
0
272
9
273
9
  0
DICTIONARY
  5
1007D
330
C
100
AcDbDictionary
281
1
  3
WRITTEN_BY_EZDXF
350
1007E
  0
DICTIONARYVAR
  5
1007E
330
1007D
100
DictionaryVariables
280
0
  1
1.3.0 @ 2024-05-23T22:39:50.116804+00:00
  0
ENDSEC
  0
EOF
